<svg width="68" height="51" viewBox="0 0 68 51" fill="none" xmlns="http://www.w3.org/2000/svg">
<path d="M33.5155 4.99658C30.09 4.99658 27.3143 7.30929 27.3143 10.1618V23.7561H24.5017C20.7608 23.7561 20.9176 23.0265 20.9176 20.378L19.397 18.0745C19.397 16.0969 19.0362 15.4665 16.1859 15.6591C13.7011 15.827 11.2975 16.7606 11.2975 18.5279L11.1029 26.52C11.1029 28.3879 15.2396 31.8892 17.8784 31.8892L24.5017 31.938H27.3143V45.4573H39.7167V10.1618C39.7167 7.30929 36.9401 4.99658 33.5155 4.99658Z" fill="#B1CC33"/>
<path d="M51.4949 18.4053C50.8682 18.3591 50.2356 18.4117 49.6377 18.5598C49.0399 18.708 48.4899 18.9483 48.0233 19.2654C47.5568 19.5825 47.1838 19.9694 46.9286 20.4011C46.6733 20.8328 46.5414 21.2998 46.5413 21.7721V26.2806C46.5413 28.9283 46.6895 29.6586 43.1583 29.6586H39.9566L40.0303 37.8399H51.0519C52.2479 37.8397 53.3948 37.4833 54.2405 36.849C55.0862 36.2148 55.5614 35.3546 55.5617 34.4576V21.918C55.5809 21.0594 55.1763 20.2257 54.4256 19.5773C53.6749 18.9289 52.6311 18.5115 51.4949 18.4053Z" fill="#B1CC33"/>
<path d="M39.7167 44.7299V10.0569C39.7167 7.25478 36.94 4.98315 33.5154 4.98315C30.0909 4.98315 27.3142 7.25478 27.3142 10.0569V44.7299" stroke="black" stroke-width="1.91211" stroke-linecap="round" stroke-linejoin="round"/>
<path d="M23.6686 31.1986H17.6582C15.9629 31.1986 14.3371 30.6935 13.1383 29.7944C11.9396 28.8954 11.2662 27.676 11.2662 26.4046V18.5137C11.2663 18.0416 11.3982 17.5746 11.6534 17.143C11.9086 16.7113 12.2815 16.3245 12.7479 16.0074C13.2144 15.6903 13.7642 15.4499 14.362 15.3018C14.9598 15.1536 15.5923 15.1009 16.2188 15.147C17.3551 15.253 18.399 15.6702 19.1498 16.3185C19.9007 16.9668 20.3056 17.8003 20.2866 18.659V22.0363C20.2866 22.672 20.6233 23.2817 21.2226 23.7312C21.822 24.1807 22.6349 24.4333 23.4826 24.4333H23.6696" stroke="black" stroke-width="1.91211" stroke-linecap="round" stroke-linejoin="round"/>
<path d="M43.2802 37.1188H51.1729C52.3692 37.1188 53.5165 36.7624 54.3624 36.1279C55.2083 35.4935 55.6835 34.633 55.6835 33.7358V21.1962C55.7025 20.3376 55.2977 19.504 54.5468 18.8557C53.7959 18.2074 52.752 17.7902 51.6158 17.6842C50.9892 17.638 50.3566 17.6906 49.7587 17.8387C49.1608 17.9869 48.6109 18.2272 48.1443 18.5443C47.6777 18.8614 47.3048 19.2483 47.0495 19.68C46.7943 20.1117 46.6623 20.5787 46.6622 21.051V25.5588C46.6622 28.2065 46.8105 30.3528 43.2802 30.3528" stroke="black" stroke-width="1.91211" stroke-linecap="round" stroke-linejoin="round"/>
<path d="M37.8683 12.9972L41.7113 10.115" stroke="black" stroke-width="1.91211" stroke-linecap="round" stroke-linejoin="round"/>
<path d="M48.2933 34.0588L52.1362 31.1773" stroke="black" stroke-width="1.91211" stroke-linecap="round" stroke-linejoin="round"/>
<path d="M19.0333 21.5114L22.8753 18.6299" stroke="black" stroke-width="1.91211" stroke-linecap="round" stroke-linejoin="round"/>
<path d="M31.3046 8.28966L28.0198 4.95837" stroke="black" stroke-width="1.91211" stroke-linecap="round" stroke-linejoin="round"/>
<path d="M29.4827 39.1234L25.1448 36.5571" stroke="black" stroke-width="1.91211" stroke-linecap="round" stroke-linejoin="round"/>
<path d="M52.7991 19.8305L56.642 16.949" stroke="black" stroke-width="1.91211" stroke-linecap="round" stroke-linejoin="round"/>
<path d="M48.197 25.1969L44.0367 22.4712" stroke="black" stroke-width="1.91211" stroke-linecap="round" stroke-linejoin="round"/>
<path d="M34.1643 18.1178L31.3904 15.1307" stroke="black" stroke-width="1.91211" stroke-linecap="round" stroke-linejoin="round"/>
<path d="M13.8777 18.3898L11.1029 14.6711" stroke="black" stroke-width="1.91211" stroke-linecap="round" stroke-linejoin="round"/>
</svg>
