<svg width="71" height="57" viewBox="0 0 71 57" fill="none" xmlns="http://www.w3.org/2000/svg">
<path d="M58.1902 7.77465C58.172 7.7394 58.142 7.71177 58.1054 7.69673C53.8761 5.74944 49.413 4.36088 44.8277 3.56578C44.7861 3.55801 44.743 3.56362 44.7047 3.58181C44.6664 3.59999 44.6348 3.62984 44.6144 3.66709C44.0067 4.77402 43.455 5.91101 42.9614 7.07373C38.0188 6.3208 32.9912 6.3208 28.0486 7.07373C27.5517 5.90806 26.9912 4.77078 26.3695 3.66709C26.3482 3.63065 26.3164 3.60149 26.2784 3.58342C26.2403 3.56535 26.1977 3.55921 26.1561 3.56578C21.5703 4.35921 17.1069 5.74788 12.8782 7.69684C12.842 7.71224 12.8114 7.73853 12.7908 7.77209C4.3341 20.4455 2.0175 32.8072 3.15395 45.0159C3.15714 45.0458 3.1663 45.0748 3.18088 45.1011C3.19546 45.1274 3.21516 45.1505 3.23881 45.169C8.16305 48.8279 13.6709 51.6207 19.5272 53.4283C19.5685 53.4407 19.6125 53.4402 19.6534 53.4267C19.6943 53.4133 19.7302 53.3876 19.7561 53.3531C21.0139 51.6356 22.1284 49.8169 23.0883 47.9156C23.1015 47.8895 23.109 47.8609 23.1104 47.8317C23.1118 47.8024 23.107 47.7732 23.0963 47.746C23.0856 47.7188 23.0693 47.6942 23.0484 47.6737C23.0276 47.6533 23.0026 47.6375 22.9753 47.6275C21.2177 46.9526 19.5163 46.1391 17.8868 45.1946C17.8572 45.1771 17.8323 45.1526 17.8144 45.1232C17.7965 45.0938 17.786 45.0605 17.784 45.0261C17.782 44.9917 17.7884 44.9573 17.8028 44.926C17.8171 44.8947 17.8389 44.8674 17.8663 44.8466C18.2091 44.5896 18.5461 44.3246 18.8768 44.052C18.9058 44.0281 18.9409 44.0127 18.9781 44.0077C19.0154 44.0026 19.0533 44.0081 19.0876 44.0235C29.763 48.9127 41.3206 48.9127 51.8696 44.0235C51.904 44.0071 51.9423 44.0009 51.9801 44.0055C52.0179 44.0101 52.0536 44.0253 52.0831 44.0495C52.4141 44.3235 52.7519 44.5893 53.0961 44.8466C53.1236 44.8672 53.1456 44.8943 53.1602 44.9255C53.1748 44.9567 53.1815 44.991 53.1797 45.0254C53.1779 45.0598 53.1677 45.0932 53.15 45.1227C53.1323 45.1523 53.1076 45.1769 53.0782 45.1946C51.4524 46.1471 49.7494 46.9601 47.9872 47.6249C47.9599 47.6353 47.935 47.6515 47.9143 47.6722C47.8936 47.693 47.8774 47.7179 47.867 47.7453C47.8565 47.7728 47.8519 47.8021 47.8535 47.8314C47.8551 47.8608 47.8629 47.8894 47.8763 47.9156C48.8523 49.8063 49.9651 51.6227 51.206 53.35C51.2312 53.3855 51.2668 53.4121 51.3079 53.4261C51.349 53.44 51.3934 53.4407 51.4348 53.428C57.3017 51.6265 62.8191 48.8334 67.7495 45.169C67.7736 45.1514 67.7935 45.1289 67.8082 45.1029C67.8228 45.077 67.8318 45.0482 67.8344 45.0185C69.195 30.904 65.5566 18.6435 58.1902 7.77465ZM24.6826 37.5821C21.4685 37.5821 18.8202 34.6222 18.8202 30.9871C18.8202 27.352 21.4172 24.3919 24.6826 24.3919C27.9736 24.3919 30.5962 27.3778 30.5449 30.9869C30.5449 34.6222 27.9478 37.5821 24.6826 37.5821ZM46.3576 37.5821C43.1436 37.5821 40.4953 34.6222 40.4953 30.9871C40.4953 27.352 43.0922 24.3919 46.3576 24.3919C49.6488 24.3919 52.2713 27.3778 52.22 30.9869C52.22 34.6222 49.6488 37.5821 46.3576 37.5821Z" fill="black"/>
</svg>
