<svg width="65" height="65" viewBox="0 0 65 65" fill="none" xmlns="http://www.w3.org/2000/svg">
<path d="M58.3736 10.8334C58.1275 10.808 57.8794 10.808 57.6333 10.8334H7.07778C6.75376 10.8383 6.43189 10.8869 6.12083 10.9778L32.2111 36.9597L58.3736 10.8334Z" fill="black"/>
<path d="M61.0458 13.343L34.7569 39.5236C34.0804 40.1961 33.1651 40.5737 32.2111 40.5737C31.2571 40.5737 30.3419 40.1961 29.6653 39.5236L3.61111 13.5416C3.53102 13.836 3.48855 14.1394 3.48473 14.4444V50.5555C3.48473 51.5132 3.86518 52.4317 4.5424 53.109C5.21961 53.7862 6.13811 54.1666 7.09584 54.1666H57.6514C58.6091 54.1666 59.5276 53.7862 60.2048 53.109C60.8821 52.4317 61.2625 51.5132 61.2625 50.5555V14.4444C61.2481 14.0682 61.175 13.6966 61.0458 13.343V13.343ZM9.56945 50.5555H7.05973V47.9736L20.1861 34.9555L22.7319 37.5014L9.56945 50.5555ZM57.6153 50.5555H55.0875L41.925 37.5014L44.4708 34.9555L57.5972 47.9736L57.6153 50.5555Z" fill="black"/>
</svg>
