<svg width="497" height="497" viewBox="0 0 497 497" fill="none" xmlns="http://www.w3.org/2000/svg">
<g clip-path="url(#clip0_3_115)">
<path d="M248.472 495.321C385.492 495.321 496.568 462.245 496.568 421.443C496.568 380.642 385.492 347.566 248.472 347.566C111.452 347.566 0.375977 380.642 0.375977 421.443C0.375977 462.245 111.452 495.321 248.472 495.321Z" fill="#3B88C3"/>
<path d="M466.411 393.85C466.411 416.123 431.953 429.507 266.804 429.507C116.223 429.507 79.1879 416.123 79.1879 393.85C79.1879 371.576 157.517 353.52 266.804 353.52C376.09 353.52 466.411 371.576 466.411 393.85Z" fill="#88C9F9"/>
<path d="M96.8578 389.88C96.8578 376.097 110.641 320.964 248.472 320.964C413.87 320.964 455.219 376.097 455.219 389.88C455.219 403.663 455.219 417.446 262.255 417.446C96.8578 417.446 96.8578 403.663 96.8578 389.88Z" fill="#F4900C"/>
<path d="M96.8578 155.567C134.919 155.567 165.773 124.712 165.773 86.6514C165.773 48.5903 134.919 17.7357 96.8578 17.7357C58.7968 17.7357 27.9422 48.5903 27.9422 86.6514C27.9422 124.712 58.7968 155.567 96.8578 155.567Z" fill="#FFCC4D"/>
<path d="M96.8578 141.784C127.307 141.784 151.99 117.1 151.99 86.6513C151.99 56.2025 127.307 31.5189 96.8578 31.5189C66.409 31.5189 41.7253 56.2025 41.7253 86.6513C41.7253 117.1 66.409 141.784 96.8578 141.784Z" fill="#FFAC33"/>
<path d="M371.817 199.907C370.743 183.842 368.327 167.894 364.595 152.231C361.099 137.396 356.487 122.845 350.798 108.704C345.602 95.8998 341.508 88.581 341.508 88.581L305.906 93.1708C305.906 93.1708 310.014 101.744 314.466 118.546C316.271 125.368 318.118 133.569 319.786 143.135C322.124 156.579 323.703 170.145 324.514 183.767C324.844 188.867 325.079 194.187 325.244 199.728C325.299 201.74 325.396 203.684 325.423 205.751C325.52 212.216 325.065 218.79 324.266 225.351C323.535 231.264 322.474 237.149 321.192 242.98C319.38 251.212 317.176 259.353 314.59 267.376C312.536 273.716 310.345 279.794 308.139 285.514C305.096 293.349 301.846 301.102 298.395 308.766C293.46 319.765 289.822 327.098 289.822 328.628C289.822 333.466 293.267 342.507 317.388 348.531C355.098 357.958 358.737 342.411 358.737 342.411C358.737 342.411 361.135 335.134 363.92 320.813C365.298 313.742 366.759 305.004 368.096 294.418C368.895 288.092 369.64 281.131 370.274 273.564C371.624 257.62 372.346 241.628 372.438 225.627C372.465 223.201 372.52 220.858 372.52 218.363C372.52 212.036 372.231 205.917 371.817 199.907Z" fill="#C1694F"/>
<path d="M335.637 294.942C321.812 292.53 312.991 288.505 308.153 285.487C305.109 293.322 301.86 301.075 298.408 308.739C307.436 313.646 318.904 317.56 331.336 319.71C338.267 320.934 345.29 321.562 352.328 321.585C356.408 321.585 360.239 321.268 363.92 320.799C365.298 313.728 366.759 304.99 368.096 294.404C363.713 295.962 352.838 297.947 335.637 294.942ZM346.084 248.879C335.306 247.817 327.022 245.447 321.206 242.952C319.393 251.184 317.19 259.325 314.604 267.348C323.957 270.775 333.713 272.981 343.631 273.909C347.862 274.322 352.052 274.529 356.146 274.529C361.094 274.529 365.794 274.143 370.287 273.55C370.963 265.667 371.514 257.121 371.914 247.873C365.711 249.223 357.028 249.968 346.084 248.879ZM349.13 227.873C357.235 227.873 365.188 227.06 372.451 225.627C372.465 223.201 372.52 220.858 372.52 218.363C372.52 212.05 372.231 205.931 371.817 199.907C366.607 201.272 359.151 202.581 348.634 202.733C337.952 202.691 330.44 201.203 325.23 199.714C325.285 201.727 325.382 203.67 325.41 205.738C325.506 212.202 325.051 218.776 324.252 225.337C332.233 226.992 340.359 227.842 348.51 227.873H349.13ZM346.677 182.761C354.419 181.591 362.027 179.661 369.391 177C368.146 168.68 366.55 160.417 364.609 152.231C357.706 155.004 350.482 156.898 343.107 157.869C336.168 158.942 329.127 159.196 322.129 158.627C323.122 166.318 323.935 174.712 324.514 183.753C326.016 183.809 327.367 184.043 328.91 184.043C334.699 184.043 340.723 183.616 346.677 182.761ZM359.206 132.342C356.739 124.348 353.933 116.461 350.798 108.704C345.319 111.427 339.585 113.601 333.679 115.196C327.408 116.995 320.962 118.118 314.452 118.545C316.258 125.368 318.104 133.569 319.772 143.135C326.743 142.49 333.646 141.25 340.406 139.427C346.856 137.584 353.143 135.214 359.206 132.342Z" fill="#D99E82"/>
<path d="M476.569 41.0705C476.128 40.4917 432.436 -17.9626 375.773 7.67404C350.316 19.1829 333.9 37.9969 327.959 62.2966C316.878 46.7905 300.035 36.9494 277.734 32.9799C216.799 22.1187 179.984 89.8077 179.625 90.483C179.36 90.9624 179.266 91.5184 179.36 92.0584C179.455 92.5984 179.731 93.0898 180.144 93.4508C180.556 93.8118 181.08 94.0205 181.628 94.0423C182.175 94.0641 182.714 93.8975 183.154 93.5705C183.43 93.3637 211.23 73.9019 257.528 82.158C284.636 86.9143 311.59 92.5083 338.352 98.9321C338.774 99.0353 339.216 99.0246 339.632 98.9011C340.049 98.7776 340.425 98.5457 340.723 98.2292C341.026 97.8984 372.465 64.1159 401.368 51.0495C444.151 31.698 473.33 44.5439 473.592 44.6817C474.077 44.9 474.62 44.9528 475.139 44.8318C475.657 44.7109 476.121 44.4231 476.459 44.0126C476.797 43.6021 476.991 43.0918 477.011 42.5602C477.031 42.0286 476.876 41.5052 476.569 41.0705Z" fill="#3E721D"/>
<path d="M429.431 74.9495C386.234 52.1384 352.659 63.4957 331.805 77.3477C306.816 72.5098 260.119 72.4271 220.548 123.163C171.962 185.435 214.579 263.089 215.007 263.875C215.434 264.647 216.247 265.101 217.116 265.101L217.405 265.088C217.88 265.028 218.326 264.828 218.686 264.514C219.047 264.2 219.306 263.785 219.431 263.323C219.583 262.786 234.551 208.646 272.4 163.12C293.088 138.242 317.788 115.238 335.168 100.09C352.673 102.998 378.392 109.435 403.656 123.549C452.903 151.087 475.494 197.688 475.715 198.157C476.156 199.066 477.107 199.7 478.154 199.521C478.651 199.47 479.119 199.264 479.492 198.933C479.866 198.602 480.125 198.161 480.235 197.674C480.428 196.806 499.421 111.916 429.431 74.9495Z" fill="#5C913B"/>
<path d="M142.767 240.427C139.675 240.535 135.849 235.001 135.68 234.769C135.503 233.293 135.381 231.811 135.314 230.327C135.206 228.257 135.314 226.191 135.413 224.121L135.461 222.917C135.534 222.564 135.62 222.054 135.741 221.3C137.52 209.996 137.555 198.978 123.389 196.176C111.151 193.766 95.2183 200.485 93.4268 211.76C90.8447 228.063 90.7363 244.219 99.7959 259.22C109.554 275.364 129.809 282.325 150.488 282.21C182.729 282.044 174.823 240.255 142.767 240.433" fill="#029B8C"/>
<path d="M225.511 365.381V195.536C225.511 180.743 208.645 168.761 187.829 168.761C167.01 168.761 150.14 180.743 150.14 195.536V365.381H225.511Z" fill="#00A99D"/>
<path d="M182.062 169.098C163.988 171.069 150.121 182.141 150.121 195.533V365.378H182.062V169.104" fill="#029B8C"/>
<path d="M210.985 293.195C207.491 295.533 202.786 298.889 201.08 303.054C201.08 303.054 201.074 322.566 201.08 330.667C201.868 351.106 216.544 356.532 225.505 356.64V291.173C220.421 290.301 215.228 290.336 210.985 293.195Z" fill="#029B8C"/>
<path d="M115.674 243.404C119.219 237.529 106.079 239.316 105.145 239.889C99.1074 243.309 114.036 246.095 115.674 243.404Z" fill="#2EEDD1"/>
<path d="M149.531 262.713C153.076 256.838 139.936 258.625 139.002 259.198C132.968 262.618 147.893 265.404 149.531 262.713Z" fill="#2EEDD1"/>
<path d="M155.818 294.905C159.362 289.027 146.222 290.814 145.288 291.39C139.254 294.807 154.179 297.58 155.818 294.905Z" fill="#2EEDD1"/>
<path d="M157.612 358.216C161.157 352.338 148.017 354.128 147.083 354.701C141.049 358.118 155.974 360.891 157.612 358.216Z" fill="#2EEDD1"/>
<path d="M157.612 330.332C161.157 324.451 148.017 326.244 147.083 326.817C141.049 330.234 155.974 333.023 157.612 330.332Z" fill="#2EEDD1"/>
<path d="M170.188 224.025C173.733 218.15 160.593 219.94 159.659 220.51C153.624 223.93 168.549 226.716 170.188 224.025Z" fill="#2EEDD1"/>
<path d="M159.276 194.61C162.821 188.732 149.681 190.521 148.747 191.094C142.713 194.514 157.638 197.297 159.276 194.61Z" fill="#2EEDD1"/>
<path d="M102.722 209.61C108.565 203.822 94.3162 202.14 93.159 202.554C85.6551 204.783 100.025 212.253 102.722 209.61Z" fill="#2EEDD1"/>
<path d="M193.777 199.899C192.732 207.566 204.281 200.679 204.915 199.704C209.219 193.747 194.265 196.387 193.777 199.899Z" fill="#2EEDD1"/>
<path d="M227.679 267.594C236.194 261.013 213.07 267.957 212.317 269.384C207.191 278.204 220.994 272.778 227.679 267.594Z" fill="#2EEDD1"/>
<path d="M196.79 253.25C195.559 260.003 207.217 253.676 207.88 252.814C212.308 247.47 197.367 250.158 196.79 253.25Z" fill="#2EEDD1"/>
<path d="M172.388 253.25C173.618 260.003 161.96 253.676 161.297 252.814C156.87 247.47 171.807 250.158 172.388 253.25Z" fill="#2EEDD1"/>
<path d="M172.002 293.546C173.232 300.296 161.575 293.969 160.912 293.106C156.487 287.76 171.425 290.454 172.002 293.546Z" fill="#2EEDD1"/>
<path d="M172.002 343.665C173.232 350.402 161.575 344.082 160.912 343.212C156.487 337.885 171.425 340.573 172.002 343.665Z" fill="#2EEDD1"/>
<path d="M100.121 227.117C103.666 220.634 90.526 222.605 89.5919 223.239C83.5543 227.006 98.4794 230.072 100.121 227.117Z" fill="#2EEDD1"/>
<path d="M119.295 270.588C120.035 263.07 108.865 270.967 108.269 271.973C104.236 278.191 118.942 274.03 119.295 270.588Z" fill="#2EEDD1"/>
<path d="M208.839 219.637C205.974 220.656 203.309 222.092 200.519 223.271C197.896 224.366 195.706 226.69 194.243 229.088C193.733 229.913 195.285 233.919 197.925 232.81C200.708 231.642 214.925 221.777 216.324 219.475C216.898 218.539 211.466 218.698 208.839 219.637Z" fill="#2EEDD1"/>
<path d="M210.784 341.499C207.564 342.522 204.377 343.276 201.036 343.69C198.492 344.005 196.273 346.489 194.829 348.409C194.584 348.727 191.489 353.593 193.761 353.313C197.615 352.838 201.367 352.039 205.068 350.845C207.67 350.017 209.978 347.253 211.342 345.031C211.951 344.015 213.414 340.649 210.784 341.499Z" fill="#2EEDD1"/>
<path d="M211.995 282.385C207.756 283.968 203.58 285.658 199.499 287.629C196.509 289.088 193.669 292.543 192.33 295.539C191.304 297.8 194.839 300.28 196.803 299.296C201.23 297.086 205.333 294.526 208.958 291.135C210.736 289.454 212.419 287.508 213.42 285.257C214.032 283.917 214.284 281.522 211.995 282.385Z" fill="#2EEDD1"/>
<path d="M232.301 193.186C228.553 194.037 225.068 195.788 221.833 197.823C220.064 198.943 216.611 201.039 216.423 203.443C216.35 204.379 217.574 205.207 217.542 205.681C217.364 207.958 221.976 205.487 222.544 205.184C226.879 202.847 231.361 199.794 233.981 195.536C235.225 193.502 234.622 192.664 232.301 193.186Z" fill="#2EEDD1"/>
<path d="M238.709 232.81C235.945 234.075 227.434 235.851 224.424 236.227C221.874 236.555 219.675 239.026 218.215 240.946C217.976 241.264 214.874 246.139 217.153 245.85C220.65 245.413 224.051 244.863 227.29 243.382C229.907 242.178 232.859 241.07 235.075 239.246C237.478 237.275 241.342 231.607 238.709 232.814" fill="#2EEDD1"/>
<path d="M228.731 283.675C230.108 283.687 233.627 283.359 233.825 283.127C234.071 282.847 234.176 282.738 234.348 282.541C234.459 282.277 234.507 282.057 234.699 281.618C234.858 281.242 235.636 278.262 235.811 278.02C235.98 276.545 236.101 275.058 236.174 273.574C236.283 271.508 236.174 269.438 236.079 267.381C236.053 266.872 236.041 266.496 236.028 266.168C235.923 265.63 235.83 265.089 235.747 264.547C233.953 253.259 233.93 242.226 248.097 239.44C260.35 237.017 276.267 243.732 278.049 255.023C280.64 271.314 276.477 289.979 267.414 304.964C257.657 321.108 241.657 325.585 220.991 325.477C188.76 325.295 196.662 283.503 228.731 283.668" fill="#00A99D"/>
<path d="M259.62 305.423C258.39 312.164 270.048 305.84 270.711 304.974C275.138 299.643 260.204 302.331 259.62 305.423Z" fill="#2EEDD1"/>
<path d="M218.435 303.226C216.461 314.017 235.11 303.891 236.168 302.515C243.261 293.975 219.362 298.284 218.435 303.226Z" fill="#2EEDD1"/>
<path d="M244.16 270.779C242.187 281.567 260.832 271.444 261.893 270.069C268.983 261.532 245.087 265.837 244.16 270.779Z" fill="#2EEDD1"/>
<path d="M266.41 259.223C264.648 272.192 284.169 260.551 285.26 258.918C292.528 248.83 267.242 253.285 266.41 259.223Z" fill="#2EEDD1"/>
<path d="M271.386 286.286C276.308 284.194 281.045 281.917 285.454 278.816C287.44 277.418 289.295 275.237 290.293 273.011C290.762 271.966 291.01 269.836 289.123 270.639C283.812 272.877 278.393 274.87 273.152 277.258C270.94 278.255 269.078 279.981 267.647 281.965C268.39 283.62 269.732 285.031 271.399 286.286" fill="#2EEDD1"/>
</g>
<defs>
<clipPath id="clip0_3_115">
<rect width="496.192" height="496.192" fill="white" transform="translate(0.375977 0.506836)"/>
</clipPath>
</defs>
</svg>
